<svg xmlns:xlink="http://www.w3.org/1999/xlink"
    viewBox="0 0 330.54 337.36"
    xmlns="http://www.w3.org/2000/svg">
    <defs>
        <clipPath
            id="clip-path"
            transform="translate(0 -0.85)">
            <rect
                fill="none"
                height="345.29"
                width="331.12" />
        </clipPath>
    </defs>
    <title>timer_17_jly_3</title>
    <g
        data-name="Layer 2"
        id="Layer_2">
        <g
            data-name="Layer 1"
            id="Layer_1-2">
            <path
                d="M318.72,172.93A153.45,153.45,0,1,1,165.25,19.49,153.46,153.46,0,0,1,318.72,172.93Zm0,0"
                fill="#e0e1e2"
                transform="translate(0 -0.85)" />
            <path
                d="M263,172.93A97.73,97.73,0,1,1,165.25,75.2,97.72,97.72,0,0,1,263,172.93Zm0,0"
                fill="#fff"
                transform="translate(0 -0.85)" />
            <path
                d="M70.84,338.21a5.91,5.91,0,0,1-4.18-10.09l23.2-23.2a5.9,5.9,0,0,1,8.35,8.33L75,336.48a5.84,5.84,0,0,1-4.15,1.73Zm0,0"
                fill="#424a60"
                transform="translate(0 -0.85)" />
            <path
                d="M259.69,338.21a5.91,5.91,0,0,1-4.18-1.73l-23.37-23.4a5.9,5.9,0,0,1,8.33-8.36l23.4,23.4a5.91,5.91,0,0,1-4.18,10.09Zm0,0"
                fill="#424a60"
                transform="translate(0 -0.85)" />
            <path
                d="M272.06,68a5.91,5.91,0,0,1-4.18-10.09l17.72-17.69a5.89,5.89,0,0,1,8.33,8.33l-17.7,17.72A5.91,5.91,0,0,1,272.06,68Zm0,0"
                fill="#c7cac7"
                transform="translate(0 -0.85)" />
            <path
                d="M58.48,68a5.94,5.94,0,0,1-4.18-1.73L36.6,48.52a5.89,5.89,0,0,1,8.33-8.33L62.65,57.88A5.91,5.91,0,0,1,58.48,68Zm0,0"
                fill="#c7cac7"
                transform="translate(0 -0.85)" />
            <path
                d="M165.25,338.21C74.13,338.21,0,264.05,0,172.93S74.13,7.67,165.25,7.67,330.54,81.8,330.54,172.93,256.41,338.21,165.25,338.21Zm0-306.93C87.15,31.28,23.6,94.83,23.6,172.93S87.15,314.61,165.25,314.61,306.94,251,306.94,172.93,243.38,31.28,165.25,31.28Zm0,0"
                fill="#3ac2f2"
                transform="translate(0 -0.85)" />
            <path
                d="M165.25,36.47a5.89,5.89,0,0,0-5.87,5.91v5.9a5.89,5.89,0,1,0,11.78,0v-5.9a5.89,5.89,0,0,0-5.91-5.91Zm0,0"
                fill="#3ac2f2"
                transform="translate(0 -0.85)" />
            <path
                d="M165.25,290.28a5.87,5.87,0,0,0-5.87,5.88v5.91a5.89,5.89,0,1,0,11.78,0v-5.91a5.87,5.87,0,0,0-5.91-5.88Zm0,0"
                fill="#3ac2f2"
                transform="translate(0 -0.85)" />
            <path
                d="M295.12,166.33h-5.91a5.89,5.89,0,1,0,0,11.79h5.91a5.89,5.89,0,1,0,0-11.79Zm0,0"
                fill="#3ac2f2"
                transform="translate(0 -0.85)" />
            <path
                d="M41.33,166.33H35.42a5.89,5.89,0,1,0,0,11.79h5.91a5.89,5.89,0,0,0,0-11.79Zm0,0"
                fill="#3ac2f2"
                transform="translate(0 -0.85)" />
            <path
                d="M252.89,76.24l-4.15,4.15a5.91,5.91,0,0,0,0,8.36,5.89,5.89,0,0,0,8.33,0l4.18-4.18a5.9,5.9,0,0,0-8.36-8.33Zm0,0"
                fill="#3ac2f2"
                transform="translate(0 -0.85)" />
            <path
                d="M73.46,255.7l-4.18,4.18a5.89,5.89,0,1,0,8.33,8.33L81.79,264a5.89,5.89,0,1,0-8.33-8.32Zm0,0"
                fill="#3ac2f2"
                transform="translate(0 -0.85)" />
            <path
                d="M257.08,255.7a5.89,5.89,0,0,0-8.33,8.32l4.15,4.18a5.94,5.94,0,0,0,4.18,1.73,5.89,5.89,0,0,0,4.18-10.06Zm0,0"
                fill="#3ac2f2"
                transform="translate(0 -0.85)" />
            <path
                d="M77.62,76.24a5.89,5.89,0,0,0-8.33,8.33l4.18,4.18a5.8,5.8,0,0,0,4.15,1.73,5.86,5.86,0,0,0,4.18-1.73,5.92,5.92,0,0,0,0-8.36Zm0,0"
                fill="#3ac2f2"
                transform="translate(0 -0.85)" />
            <path
                d="M165.25,161.14c-3.25,0-5.87-2.11-5.87-4.71V104.7c0-2.6,2.62-4.71,5.87-4.71s5.91,2.11,5.91,4.71v51.73c0,2.6-2.62,4.71-5.91,4.71Zm0,0"
                fill="red"
                transform="translate(0 -0.85)" />
            <path
                class="timer_rotate_element"
                d="M165.25,161.14a5.89,5.89,0,0,1-5.87-5.91V90.31a5.89,5.89,0,1,1,11.78,0v64.93a5.89,5.89,0,0,1-5.91,5.91Zm0,0"
                fill="#424a60"
                transform="translate(0 -0.85)" />
            <g clip-path="url(#clip-path)">
                <path
                    d="M165.25,196.56a23.62,23.62,0,1,1,23.64-23.63,23.66,23.66,0,0,1-23.64,23.63Zm0-35.42a11.8,11.8,0,1,0,11.82,11.79,11.8,11.8,0,0,0-11.82-11.79Zm0,0"
                    fill="#424a60"
                    transform="translate(0 -0.85)" />
                <path
                    d="M318.23,13.15a42.08,42.08,0,0,1,0,59.45L258.77,13.15a42.08,42.08,0,0,1,59.46,0Zm0,0"
                    fill="#e7eced"
                    transform="translate(0 -0.85)" />
                <path
                    d="M12.31,13.15a42.07,42.07,0,0,0,0,59.45L71.76,13.15a42.08,42.08,0,0,0-59.46,0Zm0,0"
                    fill="#e7eced"
                    transform="translate(0 -0.85)" />
            </g>
        </g>
    </g>
</svg>
