<?xml version="1.0" ?>
<svg enable-background="new 0 0 50 50"
    height="50px" id="Layer_1"
    version="1.1"
    viewBox="0 0 50 50" width="50px" xml:space="preserve"
    xmlns="http://www.w3.org/2000/svg" xmlns:xlink="http://www.w3.org/1999/xlink">
    <rect fill="none" height="50" width="50"/>
    <path d="M25,10V1  c13.256,0,24,10.745,24,24c0,13.256-10.744,24-24,24S1,38.256,1,25c0-6.624,2.684-12.622,7.022-16.965" fill="none" stroke="#000000" stroke-linecap="round" stroke-miterlimit="10" stroke-width="2"/>
    <path d="M27.121,27.122c-1.171,1.171-3.07,1.172-4.242,0s-10.417-14.66-10.417-14.66s13.487,9.245,14.659,10.417  S28.293,25.951,27.121,27.122z"/>
    <path d="M224,435.8V76.1c0-6.7-5.4-12.1-12.2-12.1h-71.6c-6.8,0-12.2,5.4-12.2,12.1v359.7c0,6.7,5.4,12.2,12.2,12.2h71.6   C218.6,448,224,442.6,224,435.8z"/>
    <path d="M371.8,64h-71.6c-6.7,0-12.2,5.4-12.2,12.1v359.7c0,6.7,5.4,12.2,12.2,12.2h71.6c6.7,0,12.2-5.4,12.2-12.2V76.1   C384,69.4,378.6,64,371.8,64z"/>

</svg>